<svg xmlns="http://www.w3.org/2000/svg" xmlns:v="https://svgstorm.com"
viewBox = "0 0 325 103"
width="325"
height="103">
<g fill="None" fill-opacity="0.0" stroke="#000000" stroke-opacity="0.00" stroke-width="0.3"><path d="
M 0.00 103.00 
L 325.00 103.00
L 325.00 0.00
L 0.00 0.00
L 0.00 103.00
M 84.00 13.00 
C 83.40 24.69 87.67 39.53 75.00 46.00
C 75.00 35.00 75.00 24.00 75.00 13.00
C 78.00 13.00 81.00 13.00 84.00 13.00
M 72.00 20.00 
C 72.53 21.03 72.00 23.82 72.00 25.00
C 72.00 31.33 72.00 37.67 72.00 44.00
C 72.00 45.33 71.95 46.67 72.00 48.00
C 72.06 49.55 71.48 51.15 73.00 52.00
C 79.49 50.86 86.29 38.37 88.00 33.00
C 92.00 33.00 96.00 33.00 100.00 33.00
C 98.80 37.27 97.56 43.68 92.00 44.00
C 100.97 58.74 84.71 76.31 70.93 79.93 C 57.14 83.54 29.93 72.64 39.00 56.00
C 40.39 48.25 37.96 39.81 39.00 32.00
C 50.22 28.39 46.85 41.12 49.00 47.00
C 49.67 46.18 50.70 45.22 51.00 44.00
C 52.56 37.60 49.31 31.30 50.00 25.00
C 53.33 25.00 56.67 25.00 60.00 25.00
C 59.34 31.16 61.32 38.66 59.00 44.00
C 58.62 45.99 58.01 45.92 59.00 48.00
C 59.49 48.78 61.30 49.47 62.00 50.00
C 62.00 41.67 62.00 33.33 62.00 25.00
C 62.12 23.01 61.91 20.99 62.00 19.00
C 65.17 19.61 69.65 17.75 72.00 20.00
M 242.00 22.00 
C 242.00 37.67 242.00 53.33 242.00 69.00
C 227.72 72.95 230.75 61.90 231.00 52.00 C 231.25 42.10 230.81 31.93 231.00 22.00
C 234.67 22.00 238.33 22.00 242.00 22.00
M 153.00 26.00 
C 151.13 32.13 157.69 35.04 159.00 40.00
C 156.65 40.85 155.77 44.24 153.00 44.00
C 153.00 49.33 153.00 54.67 153.00 60.00
C 161.37 59.93 159.90 70.13 152.99 69.99 C 146.09 69.85 140.91 68.05 140.02 60.98 C 139.14 53.90 141.93 46.70 137.25 41.75 C 132.58 36.79 140.98 30.61 141.00 26.00
C 145.00 26.00 149.00 26.00 153.00 26.00
M 135.00 45.00 
C 127.68 50.14 121.58 38.50 116.00 44.00
C 127.37 43.96 142.62 56.83 132.70 66.70 C 122.78 76.56 105.57 69.62 104.00 58.00
C 110.72 51.40 117.32 64.20 122.00 62.00 C 126.68 59.80 115.00 55.12 110.75 53.25 C 106.51 51.37 100.97 43.05 106.25 38.25 C 111.54 33.46 116.70 31.57 123.07 32.93 C 129.45 34.28 135.15 37.94 135.00 45.00
M 180.00 32.00 
C 203.76 36.26 197.10 74.37 173.00 70.00 C 148.90 65.63 157.19 27.91 180.00 32.00
M 211.00 43.00 
C 214.10 35.68 220.86 30.30 229.00 34.00
C 227.49 39.64 219.67 44.59 220.35 50.69 C 221.04 56.80 226.60 63.39 229.00 69.00
C 220.22 73.39 214.46 64.94 210.00 60.00
C 208.95 68.77 200.51 71.30 193.00 69.00
C 194.34 62.38 201.75 58.84 201.99 51.99 C 202.23 45.14 193.62 40.71 193.00 34.00
C 201.03 30.40 207.40 36.62 211.00 43.00
M 281.00 34.00 
C 279.85 40.89 277.07 46.02 274.69 52.69 C 272.31 59.37 270.12 63.44 267.69 70.69 C 265.27 77.95 263.18 81.95 254.00 82.00 C 244.82 82.05 245.17 72.08 255.00 72.00
C 253.91 58.53 246.06 46.98 243.00 34.00
C 247.33 34.00 251.67 34.00 256.00 34.00
C 257.83 41.03 259.36 48.18 262.00 55.00
C 266.09 46.28 265.96 27.59 281.00 34.00 Z"/>
</g>
<g fill="None" fill-opacity="0.0" stroke="#F0F1F2" stroke-opacity="0.82" stroke-width="0.3"><path d="
M 84.00 13.00 
C 81.00 13.00 78.00 13.00 75.00 13.00
C 75.00 24.00 75.00 35.00 75.00 46.00
C 87.67 39.53 83.40 24.69 84.00 13.00 Z"/>
</g>
<g fill="None" fill-opacity="0.0" stroke="#4D96BE" stroke-opacity="0.87" stroke-width="0.3"><path d="
M 62.00 25.00 
C 62.29 32.83 63.86 42.43 63.00 51.00
C 61.23 51.21 59.63 49.46 59.00 48.00
C 58.01 45.92 58.62 45.99 59.00 44.00
C 57.19 45.27 52.93 42.88 51.00 44.00
C 50.70 45.22 49.67 46.18 49.00 47.00
C 46.29 50.31 41.53 52.53 39.00 56.00
C 29.93 72.64 57.14 83.54 70.93 79.93 C 84.71 76.31 100.97 58.74 92.00 44.00
C 97.56 43.68 98.80 37.27 100.00 33.00
C 96.00 33.00 92.00 33.00 88.00 33.00
C 86.29 38.37 79.49 50.86 73.00 52.00
C 70.67 52.41 70.72 51.37 71.00 48.00
C 70.50 48.00 70.00 48.00 70.00 48.00
C 69.39 49.23 68.32 50.56 67.00 51.00
C 62.23 42.76 62.25 29.21 67.00 21.00
C 68.66 21.54 69.33 23.56 71.00 24.00
C 70.67 22.91 70.66 20.37 72.00 20.00
C 69.65 17.75 65.17 19.61 62.00 19.00
C 61.91 20.99 62.12 23.01 62.00 25.00
M 88.00 47.00 
C 86.98 65.92 60.78 82.46 46.00 64.00
C 49.56 60.89 51.27 55.20 56.00 54.00
C 60.07 59.51 66.12 69.51 71.77 62.77 C 77.42 56.02 82.06 52.81 88.00 47.00 Z"/>
</g>
<g fill="None" fill-opacity="0.0" stroke="#5C8F9F" stroke-opacity="0.65" stroke-width="0.3"><path d="
M 71.00 24.00 
C 71.25 24.25 71.95 24.77 72.00 25.00
C 72.00 23.82 72.53 21.03 72.00 20.00
C 70.66 20.37 70.67 22.91 71.00 24.00 Z"/>
</g>
<g fill="None" fill-opacity="0.0" stroke="#E0EAEF" stroke-opacity="0.94" stroke-width="0.3"><path d="
M 70.00 48.00 
C 69.76 45.35 70.18 42.65 70.00 40.00
C 71.98 40.47 69.89 43.60 72.00 44.00
C 72.00 37.67 72.00 31.33 72.00 25.00
C 71.95 24.77 71.25 24.25 71.00 24.00
C 69.33 23.56 68.66 21.54 67.00 21.00
C 62.25 29.21 62.23 42.76 67.00 51.00
C 68.32 50.56 69.39 49.23 70.00 48.00 Z"/>
</g>
<g fill="None" fill-opacity="0.0" stroke="#F4F5F5" stroke-opacity="0.92" stroke-width="0.3"><path d="
M 242.00 22.00 
C 238.33 22.00 234.67 22.00 231.00 22.00
C 230.81 31.93 231.25 42.10 231.00 52.00 C 230.75 61.90 227.72 72.95 242.00 69.00
C 242.00 53.33 242.00 37.67 242.00 22.00 Z"/>
</g>
<g fill="None" fill-opacity="0.0" stroke="#EEF2F2" stroke-opacity="0.89" stroke-width="0.3"><path d="
M 51.00 44.00 
C 52.93 42.88 57.19 45.27 59.00 44.00
C 61.32 38.66 59.34 31.16 60.00 25.00
C 56.67 25.00 53.33 25.00 50.00 25.00
C 49.31 31.30 52.56 37.60 51.00 44.00 Z"/>
</g>
<g fill="None" fill-opacity="0.0" stroke="#77A4C7" stroke-opacity="0.06" stroke-width="0.3"><path d="
M 59.00 48.00 
C 59.63 49.46 61.23 51.21 63.00 51.00
C 63.86 42.43 62.29 32.83 62.00 25.00
C 62.00 33.33 62.00 41.67 62.00 50.00
C 61.30 49.47 59.49 48.78 59.00 48.00 Z"/>
</g>
<g fill="None" fill-opacity="0.0" stroke="#F5F5F5" stroke-opacity="0.91" stroke-width="0.3"><path d="
M 153.00 26.00 
C 149.00 26.00 145.00 26.00 141.00 26.00
C 140.98 30.61 132.58 36.79 137.25 41.75 C 141.93 46.70 139.14 53.90 140.02 60.98 C 140.91 68.05 146.09 69.85 152.99 69.99 C 159.90 70.13 161.37 59.93 153.00 60.00
C 153.00 54.67 153.00 49.33 153.00 44.00
C 155.77 44.24 156.65 40.85 159.00 40.00
C 157.69 35.04 151.13 32.13 153.00 26.00 Z"/>
</g>
<g fill="None" fill-opacity="0.0" stroke="#EFF2F3" stroke-opacity="0.92" stroke-width="0.3"><path d="
M 39.00 56.00 
C 41.53 52.53 46.29 50.31 49.00 47.00
C 46.85 41.12 50.22 28.39 39.00 32.00
C 37.96 39.81 40.39 48.25 39.00 56.00 Z"/>
</g>
<g fill="None" fill-opacity="0.0" stroke="#F5F5F5" stroke-opacity="0.91" stroke-width="0.3"><path d="
M 135.00 45.00 
C 135.15 37.94 129.45 34.28 123.07 32.93 C 116.70 31.57 111.54 33.46 106.25 38.25 C 100.97 43.05 106.51 51.37 110.75 53.25 C 115.00 55.12 126.68 59.80 122.00 62.00 C 117.32 64.20 110.72 51.40 104.00 58.00
C 105.57 69.62 122.78 76.56 132.70 66.70 C 142.62 56.83 127.37 43.96 116.00 44.00
C 121.58 38.50 127.68 50.14 135.00 45.00 Z"/>
</g>
<g fill="None" fill-opacity="0.0" stroke="#F6F6F6" stroke-opacity="0.93" stroke-width="0.3"><path d="
M 180.00 32.00 
C 157.19 27.91 148.90 65.63 173.00 70.00 C 197.10 74.37 203.76 36.26 180.00 32.00
M 180.00 43.00 
C 186.90 46.15 182.86 64.12 174.78 60.22 C 166.69 56.32 170.46 38.64 180.00 43.00 Z"/>
</g>
<g fill="None" fill-opacity="0.0" stroke="#F6F6F6" stroke-opacity="0.91" stroke-width="0.3"><path d="
M 211.00 43.00 
C 207.40 36.62 201.03 30.40 193.00 34.00
C 193.62 40.71 202.23 45.14 201.99 51.99 C 201.75 58.84 194.34 62.38 193.00 69.00
C 200.51 71.30 208.95 68.77 210.00 60.00
C 214.46 64.94 220.22 73.39 229.00 69.00
C 226.60 63.39 221.04 56.80 220.35 50.69 C 219.67 44.59 227.49 39.64 229.00 34.00
C 220.86 30.30 214.10 35.68 211.00 43.00 Z"/>
</g>
<g fill="None" fill-opacity="0.0" stroke="#F5F5F5" stroke-opacity="0.91" stroke-width="0.3"><path d="
M 281.00 34.00 
C 265.96 27.59 266.09 46.28 262.00 55.00
C 259.36 48.18 257.83 41.03 256.00 34.00
C 251.67 34.00 247.33 34.00 243.00 34.00
C 246.06 46.98 253.91 58.53 255.00 72.00
C 245.17 72.08 244.82 82.05 254.00 82.00 C 263.18 81.95 265.27 77.95 267.69 70.69 C 270.12 63.44 272.31 59.37 274.69 52.69 C 277.07 46.02 279.85 40.89 281.00 34.00 Z"/>
</g>
<g fill="None" fill-opacity="0.0" stroke="#A6BFCD" stroke-opacity="0.81" stroke-width="0.3"><path d="
M 70.00 48.00 
C 70.00 48.00 70.50 48.00 71.00 48.00
C 71.50 48.00 72.00 48.00 72.00 48.00
C 71.95 46.67 72.00 45.33 72.00 44.00
C 69.89 43.60 71.98 40.47 70.00 40.00
C 70.18 42.65 69.76 45.35 70.00 48.00 Z"/>
</g>
<g fill="None" fill-opacity="0.0" stroke="#000000" stroke-opacity="0.00" stroke-width="0.3"><path d="
M 180.00 43.00 
C 170.46 38.64 166.69 56.32 174.78 60.22 C 182.86 64.12 186.90 46.15 180.00 43.00 Z"/>
</g>
<g fill="None" fill-opacity="0.0" stroke="#000000" stroke-opacity="0.00" stroke-width="0.3"><path d="
M 88.00 47.00 
C 82.06 52.81 77.42 56.02 71.77 62.77 C 66.12 69.51 60.07 59.51 56.00 54.00
C 51.27 55.20 49.56 60.89 46.00 64.00
C 60.78 82.46 86.98 65.92 88.00 47.00 Z"/>
</g>
<g fill="None" fill-opacity="0.0" stroke="#5C99B9" stroke-opacity="0.56" stroke-width="0.3"><path d="
M 73.00 52.00 
C 71.48 51.15 72.06 49.55 72.00 48.00
C 72.00 48.00 71.50 48.00 71.00 48.00
C 70.72 51.37 70.67 52.41 73.00 52.00 Z"/>
</g>
<g fill="#000000" fill-opacity="0.00" stroke="None">
<path d="
M 0.00 103.00 
L 325.00 103.00
L 325.00 0.00
L 0.00 0.00
L 0.00 103.00
M 84.00 13.00 
C 83.40 24.69 87.67 39.53 75.00 46.00
C 75.00 35.00 75.00 24.00 75.00 13.00
C 78.00 13.00 81.00 13.00 84.00 13.00
M 72.00 20.00 
C 72.53 21.03 72.00 23.82 72.00 25.00
C 72.00 31.33 72.00 37.67 72.00 44.00
C 72.00 45.33 71.95 46.67 72.00 48.00
C 72.06 49.55 71.48 51.15 73.00 52.00
C 79.49 50.86 86.29 38.37 88.00 33.00
C 92.00 33.00 96.00 33.00 100.00 33.00
C 98.80 37.27 97.56 43.68 92.00 44.00
C 100.97 58.74 84.71 76.31 70.93 79.93 C 57.14 83.54 29.93 72.64 39.00 56.00
C 40.39 48.25 37.96 39.81 39.00 32.00
C 50.22 28.39 46.85 41.12 49.00 47.00
C 49.67 46.18 50.70 45.22 51.00 44.00
C 52.56 37.60 49.31 31.30 50.00 25.00
C 53.33 25.00 56.67 25.00 60.00 25.00
C 59.34 31.16 61.32 38.66 59.00 44.00
C 58.62 45.99 58.01 45.92 59.00 48.00
C 59.49 48.78 61.30 49.47 62.00 50.00
C 62.00 41.67 62.00 33.33 62.00 25.00
C 62.12 23.01 61.91 20.99 62.00 19.00
C 65.17 19.61 69.65 17.75 72.00 20.00
M 242.00 22.00 
C 242.00 37.67 242.00 53.33 242.00 69.00
C 227.72 72.95 230.75 61.90 231.00 52.00 C 231.25 42.10 230.81 31.93 231.00 22.00
C 234.67 22.00 238.33 22.00 242.00 22.00
M 153.00 26.00 
C 151.13 32.13 157.69 35.04 159.00 40.00
C 156.65 40.85 155.77 44.24 153.00 44.00
C 153.00 49.33 153.00 54.67 153.00 60.00
C 161.37 59.93 159.90 70.13 152.99 69.99 C 146.09 69.85 140.91 68.05 140.02 60.98 C 139.14 53.90 141.93 46.70 137.25 41.75 C 132.58 36.79 140.98 30.61 141.00 26.00
C 145.00 26.00 149.00 26.00 153.00 26.00
M 135.00 45.00 
C 127.68 50.14 121.58 38.50 116.00 44.00
C 127.37 43.96 142.62 56.83 132.70 66.70 C 122.78 76.56 105.57 69.62 104.00 58.00
C 110.72 51.40 117.32 64.20 122.00 62.00 C 126.68 59.80 115.00 55.12 110.75 53.25 C 106.51 51.37 100.97 43.05 106.25 38.25 C 111.54 33.46 116.70 31.57 123.07 32.93 C 129.45 34.28 135.15 37.94 135.00 45.00
M 180.00 32.00 
C 203.76 36.26 197.10 74.37 173.00 70.00 C 148.90 65.63 157.19 27.91 180.00 32.00
M 211.00 43.00 
C 214.10 35.68 220.86 30.30 229.00 34.00
C 227.49 39.64 219.67 44.59 220.35 50.69 C 221.04 56.80 226.60 63.39 229.00 69.00
C 220.22 73.39 214.46 64.94 210.00 60.00
C 208.95 68.77 200.51 71.30 193.00 69.00
C 194.34 62.38 201.75 58.84 201.99 51.99 C 202.23 45.14 193.62 40.71 193.00 34.00
C 201.03 30.40 207.40 36.62 211.00 43.00
M 281.00 34.00 
C 279.85 40.89 277.07 46.02 274.69 52.69 C 272.31 59.37 270.12 63.44 267.69 70.69 C 265.27 77.95 263.18 81.95 254.00 82.00 C 244.82 82.05 245.17 72.08 255.00 72.00
C 253.91 58.53 246.06 46.98 243.00 34.00
C 247.33 34.00 251.67 34.00 256.00 34.00
C 257.83 41.03 259.36 48.18 262.00 55.00
C 266.09 46.28 265.96 27.59 281.00 34.00 Z"/>
</g>
<g fill="#F0F1F2" fill-opacity="0.82" stroke="None">
<path d="
M 84.00 13.00 
C 81.00 13.00 78.00 13.00 75.00 13.00
C 75.00 24.00 75.00 35.00 75.00 46.00
C 87.67 39.53 83.40 24.69 84.00 13.00 Z"/>
</g>
<g fill="#4D96BE" fill-opacity="0.87" stroke="None">
<path d="
M 62.00 25.00 
C 62.29 32.83 63.86 42.43 63.00 51.00
C 61.23 51.21 59.63 49.46 59.00 48.00
C 58.01 45.92 58.62 45.99 59.00 44.00
C 57.19 45.27 52.93 42.88 51.00 44.00
C 50.70 45.22 49.67 46.18 49.00 47.00
C 46.29 50.31 41.53 52.53 39.00 56.00
C 29.93 72.64 57.14 83.54 70.93 79.93 C 84.71 76.31 100.97 58.74 92.00 44.00
C 97.56 43.68 98.80 37.27 100.00 33.00
C 96.00 33.00 92.00 33.00 88.00 33.00
C 86.29 38.37 79.49 50.86 73.00 52.00
C 70.67 52.41 70.72 51.37 71.00 48.00
C 70.50 48.00 70.00 48.00 70.00 48.00
C 69.39 49.23 68.32 50.56 67.00 51.00
C 62.23 42.76 62.25 29.21 67.00 21.00
C 68.66 21.54 69.33 23.56 71.00 24.00
C 70.67 22.91 70.66 20.37 72.00 20.00
C 69.65 17.75 65.17 19.61 62.00 19.00
C 61.91 20.99 62.12 23.01 62.00 25.00
M 88.00 47.00 
C 86.98 65.92 60.78 82.46 46.00 64.00
C 49.56 60.89 51.27 55.20 56.00 54.00
C 60.07 59.51 66.12 69.51 71.77 62.77 C 77.42 56.02 82.06 52.81 88.00 47.00 Z"/>
</g>
<g fill="#5C8F9F" fill-opacity="0.65" stroke="None">
<path d="
M 71.00 24.00 
C 71.25 24.25 71.95 24.77 72.00 25.00
C 72.00 23.82 72.53 21.03 72.00 20.00
C 70.66 20.37 70.67 22.91 71.00 24.00 Z"/>
</g>
<g fill="#E0EAEF" fill-opacity="0.94" stroke="None">
<path d="
M 70.00 48.00 
C 69.76 45.35 70.18 42.65 70.00 40.00
C 71.98 40.47 69.89 43.60 72.00 44.00
C 72.00 37.67 72.00 31.33 72.00 25.00
C 71.95 24.77 71.25 24.25 71.00 24.00
C 69.33 23.56 68.66 21.54 67.00 21.00
C 62.25 29.21 62.23 42.76 67.00 51.00
C 68.32 50.56 69.39 49.23 70.00 48.00 Z"/>
</g>
<g fill="#F4F5F5" fill-opacity="0.92" stroke="None">
<path d="
M 242.00 22.00 
C 238.33 22.00 234.67 22.00 231.00 22.00
C 230.81 31.93 231.25 42.10 231.00 52.00 C 230.75 61.90 227.72 72.95 242.00 69.00
C 242.00 53.33 242.00 37.67 242.00 22.00 Z"/>
</g>
<g fill="#EEF2F2" fill-opacity="0.89" stroke="None">
<path d="
M 51.00 44.00 
C 52.93 42.88 57.19 45.27 59.00 44.00
C 61.32 38.66 59.34 31.16 60.00 25.00
C 56.67 25.00 53.33 25.00 50.00 25.00
C 49.31 31.30 52.56 37.60 51.00 44.00 Z"/>
</g>
<g fill="#77A4C7" fill-opacity="0.06" stroke="None">
<path d="
M 59.00 48.00 
C 59.63 49.46 61.23 51.21 63.00 51.00
C 63.86 42.43 62.29 32.83 62.00 25.00
C 62.00 33.33 62.00 41.67 62.00 50.00
C 61.30 49.47 59.49 48.78 59.00 48.00 Z"/>
</g>
<g fill="#F5F5F5" fill-opacity="0.91" stroke="None">
<path d="
M 153.00 26.00 
C 149.00 26.00 145.00 26.00 141.00 26.00
C 140.98 30.61 132.58 36.79 137.25 41.75 C 141.93 46.70 139.14 53.90 140.02 60.98 C 140.91 68.05 146.09 69.85 152.99 69.99 C 159.90 70.13 161.37 59.93 153.00 60.00
C 153.00 54.67 153.00 49.33 153.00 44.00
C 155.77 44.24 156.65 40.85 159.00 40.00
C 157.69 35.04 151.13 32.13 153.00 26.00 Z"/>
</g>
<g fill="#EFF2F3" fill-opacity="0.92" stroke="None">
<path d="
M 39.00 56.00 
C 41.53 52.53 46.29 50.31 49.00 47.00
C 46.85 41.12 50.22 28.39 39.00 32.00
C 37.96 39.81 40.39 48.25 39.00 56.00 Z"/>
</g>
<g fill="#F5F5F5" fill-opacity="0.91" stroke="None">
<path d="
M 135.00 45.00 
C 135.15 37.94 129.45 34.28 123.07 32.93 C 116.70 31.57 111.54 33.46 106.25 38.25 C 100.97 43.05 106.51 51.37 110.75 53.25 C 115.00 55.12 126.68 59.80 122.00 62.00 C 117.32 64.20 110.72 51.40 104.00 58.00
C 105.57 69.62 122.78 76.56 132.70 66.70 C 142.62 56.83 127.37 43.96 116.00 44.00
C 121.58 38.50 127.68 50.14 135.00 45.00 Z"/>
</g>
<g fill="#F6F6F6" fill-opacity="0.93" stroke="None">
<path d="
M 180.00 32.00 
C 157.19 27.91 148.90 65.63 173.00 70.00 C 197.10 74.37 203.76 36.26 180.00 32.00
M 180.00 43.00 
C 186.90 46.15 182.86 64.12 174.78 60.22 C 166.69 56.32 170.46 38.64 180.00 43.00 Z"/>
</g>
<g fill="#F6F6F6" fill-opacity="0.91" stroke="None">
<path d="
M 211.00 43.00 
C 207.40 36.62 201.03 30.40 193.00 34.00
C 193.62 40.71 202.23 45.14 201.99 51.99 C 201.75 58.84 194.34 62.38 193.00 69.00
C 200.51 71.30 208.95 68.77 210.00 60.00
C 214.46 64.94 220.22 73.39 229.00 69.00
C 226.60 63.39 221.04 56.80 220.35 50.69 C 219.67 44.59 227.49 39.64 229.00 34.00
C 220.86 30.30 214.10 35.68 211.00 43.00 Z"/>
</g>
<g fill="#F5F5F5" fill-opacity="0.91" stroke="None">
<path d="
M 281.00 34.00 
C 265.96 27.59 266.09 46.28 262.00 55.00
C 259.36 48.18 257.83 41.03 256.00 34.00
C 251.67 34.00 247.33 34.00 243.00 34.00
C 246.06 46.98 253.91 58.53 255.00 72.00
C 245.17 72.08 244.82 82.05 254.00 82.00 C 263.18 81.95 265.27 77.95 267.69 70.69 C 270.12 63.44 272.31 59.37 274.69 52.69 C 277.07 46.02 279.85 40.89 281.00 34.00 Z"/>
</g>
<g fill="#A6BFCD" fill-opacity="0.81" stroke="None">
<path d="
M 70.00 48.00 
C 70.00 48.00 70.50 48.00 71.00 48.00
C 71.50 48.00 72.00 48.00 72.00 48.00
C 71.95 46.67 72.00 45.33 72.00 44.00
C 69.89 43.60 71.98 40.47 70.00 40.00
C 70.18 42.65 69.76 45.35 70.00 48.00 Z"/>
</g>
<g fill="#000000" fill-opacity="0.00" stroke="None">
<path d="
M 180.00 43.00 
C 170.46 38.64 166.69 56.32 174.78 60.22 C 182.86 64.12 186.90 46.15 180.00 43.00 Z"/>
</g>
<g fill="#000000" fill-opacity="0.00" stroke="None">
<path d="
M 88.00 47.00 
C 82.06 52.81 77.42 56.02 71.77 62.77 C 66.12 69.51 60.07 59.51 56.00 54.00
C 51.27 55.20 49.56 60.89 46.00 64.00
C 60.78 82.46 86.98 65.92 88.00 47.00 Z"/>
</g>
<g fill="#5C99B9" fill-opacity="0.56" stroke="None">
<path d="
M 73.00 52.00 
C 71.48 51.15 72.06 49.55 72.00 48.00
C 72.00 48.00 71.50 48.00 71.00 48.00
C 70.72 51.37 70.67 52.41 73.00 52.00 Z"/>
</g>
</svg>